<?xml version="1.0" encoding="UTF-8" standalone="no"?>
<svg
   xmlns:dc="http://purl.org/dc/elements/1.1/"
   xmlns:cc="http://creativecommons.org/ns#"
   xmlns:rdf="http://www.w3.org/1999/02/22-rdf-syntax-ns#"
   xmlns:svg="http://www.w3.org/2000/svg"
   xmlns="http://www.w3.org/2000/svg"
   xmlns:sodipodi="http://sodipodi.sourceforge.net/DTD/sodipodi-0.dtd"
   xmlns:inkscape="http://www.inkscape.org/namespaces/inkscape"
   xml:space="preserve"
   enable-background="new 0 0 595.275 350"
   viewBox="0 0 489.85017 584.15094"
   height="584.15094"
   width="489.85019"
   y="0px"
   x="0px"
   id="Capa_1"
   version="1.1"
   inkscape:version="0.91 r13725"
   sodipodi:docname="touristssimple-ver2.svg"><sodipodi:namedview
     pagecolor="#ffffff"
     bordercolor="#666666"
     borderopacity="1"
     objecttolerance="10"
     gridtolerance="10"
     guidetolerance="10"
     inkscape:pageopacity="0"
     inkscape:pageshadow="2"
     inkscape:window-width="1916"
     inkscape:window-height="1035"
     id="namedview10779"
     showgrid="false"
     inkscape:zoom="0.8131728"
     inkscape:cx="112.98277"
     inkscape:cy="295.81032"
     inkscape:window-x="4"
     inkscape:window-y="1"
     inkscape:window-maximized="1"
     inkscape:current-layer="g31243" /><metadata
     id="metadata30697"><rdf:RDF><cc:Work
         rdf:about=""><dc:format>image/svg+xml</dc:format><dc:type
           rdf:resource="http://purl.org/dc/dcmitype/StillImage" /><dc:title></dc:title><dc:creator><cc:Agent><dc:title>j4p4n</dc:title></cc:Agent></dc:creator><cc:license
           rdf:resource="http://creativecommons.org/publicdomain/zero/1.0/" /></cc:Work><cc:License
         rdf:about="http://creativecommons.org/publicdomain/zero/1.0/"><cc:permits
           rdf:resource="http://creativecommons.org/ns#Reproduction" /><cc:permits
           rdf:resource="http://creativecommons.org/ns#Distribution" /><cc:permits
           rdf:resource="http://creativecommons.org/ns#DerivativeWorks" /></cc:License></rdf:RDF></metadata><defs
     id="defs30695" /><g
     id="g31310"><g
       id="g31243"
       transform="matrix(-1,0,0,1,220.62854,0)"><g
         id="g11487"><g
           id="g31290"
           style=""
           transform="matrix(-1,0,0,1,220.62854,0)"><path
             d="m 363.14407,307.85218 39.16017,-10.08797 0,8.38175 41.9969,-1.1637 0,174.06665 0,21.04085 0,1.71409 -32.23856,0 0,-4.32454 c -0.12014,0.85705 -0.24696,1.71409 -0.24696,2.61045 l 0,-140.76769 c 0,-9.56903 -3.99144,-12.9579 -8.14307,-12.80064 l 0,0.10222 c -0.22694,-0.0786 -0.48058,-0.0786 -0.68749,-0.10222 -0.22694,0.0236 -0.4472,0.0236 -0.68749,0.10222 l 0,-0.10222 c -4.23173,-0.16512 -6.48776,3.23161 -6.48776,12.80064 l -0.58737,120.03349 0,22.45616 c 0,0 -32.09171,-1.99716 -32.09171,-1.71409 l 0,-192.24545 z"
             id="path29607"
             style="clip-rule:evenodd;fill:#790d23;fill-rule:evenodd" /><rect
             x="454.81363"
             y="147.38812"
             width="12.201259"
             height="88.464355"
             id="rect29609"
             style="fill:#1d1d1b" /><path
             d="m 413.72457,75.57723 10.37908,0 c 0,0 3.02362,17.45541 -10.37908,18.22597 l 0,-18.22597 z"
             id="path29611"
             style="clip-rule:evenodd;fill:#f6bdb4;fill-rule:evenodd" /><rect
             x="361.26831"
             y="136.98566"
             width="83.379723"
             height="172.65135"
             id="rect29613"
             style="fill:#926a3a" /><polygon
             points="568.822,269.62 559.986,269.62 559.986,280.201 564.657,280.201 564.657,281.991 564.404,281.991 566.994,284.635 568.844,281.996 568.847,281.996 568.847,281.991 568.847,281.991 568.822,280.201 568.822,278.029 "
             id="polygon29615"
             transform="matrix(6.6746495,0,0,7.8627993,-3379.8459,-2080.2844)"
             style="clip-rule:evenodd;fill:#f6bdb4;fill-rule:evenodd" /><path
             d="m 407.35028,33.37759 0,-17.67558 -24.7496,0 C 372.44186,14.51473 371.7744,0 371.7744,0 l -13.90997,0 0,39.65996 11.05322,0 2.85675,0 17.54098,0 c -0.0935,17.65199 16.24609,13.85425 16.24609,13.85425 l 0,12.66697 11.27349,-5.4096 0,-27.39399 -9.48468,0 z"
             id="path29617"
             style="fill:#1d1d1b" /><rect
             x="320.80688"
             y="66.196938"
             width="48.130898"
             height="52.74366"
             id="rect29619"
             style="fill:#1d1d1b" /><path
             d="m 329.3837,92.58446 c 0,-7.30454 5.1061,-13.20164 11.4003,-13.20164 6.30754,0 11.41365,5.8971 11.41365,13.20164 0,7.28096 -5.10611,13.20164 -11.41365,13.20164 -6.2942,-0.008 -11.4003,-5.92855 -11.4003,-13.20164"
             id="path29621"
             style="fill:#ffffff" /><rect
             x="429.41013"
             y="235.85254"
             width="48.137573"
             height="65.544296"
             id="rect29623"
             style="fill:#1d1d1b" /><path
             d="m 395.23579,584.15095 0,-85.73596 -32.08504,0 0,66.18904 c 0,0 -13.7965,0.25161 -11.73403,19.53906 l 43.81907,0 z"
             id="path29625"
             style="clip-rule:evenodd;fill:#1d1d1b;fill-rule:evenodd" /><path
             d="m 444.28111,584.15095 0,-85.73596 -32.44547,0 0,66.18904 c 0,0 -13.92332,0.25161 -11.84083,19.53906 l 44.2863,0 z"
             id="path29627"
             style="clip-rule:evenodd;fill:#1d1d1b;fill-rule:evenodd" /><rect
             x="429.41013"
             y="136.98566"
             width="15.251575"
             height="100.43153"
             id="rect29629"
             style="fill:#1d1d1b" /><path
             d="m 429.93729,235.86039 c -0.36043,2.6419 -0.52729,5.39388 -0.52729,8.2638 0,21.434 10.18551,38.82651 22.7472,38.82651 l 2.62314,0 c 12.58171,0 22.76723,-17.39251 22.76723,-38.82651 0,-2.86992 -0.18689,-5.61403 -0.5273,-8.2638 l -47.08298,0 z"
             id="path29631"
             style="fill:#646c87" /><path
             d="m 457.54364,272.33592 c 0,2.79915 -2.02242,5.03219 -4.57881,5.03219 -2.52301,0 -4.55211,-2.22517 -4.55211,-5.03219 0,-2.77557 2.0291,-5.02433 4.55211,-5.02433 2.56307,0 4.57881,2.24876 4.57881,5.02433"
             id="path29633"
             style="fill:#1d1d1b" /><path
             d="m 373.04258,137.00142 -11.8742,0 c -2.10252,17.80924 -13.30258,32.43404 -28.28049,37.78861 -0.62074,0.23588 -1.28153,0.44032 -1.949,0.62116 -0.3938,0.13367 -1.21479,0.3381 -1.21479,0.3381 -1.8155,0.39314 -3.70443,0.62903 -5.62005,0.62903 -15.59866,0 -28.26714,-14.27098 -28.26714,-31.91511 0,-10.48897 4.51206,-19.76707 11.44702,-25.56982 l 0,-17.1409 c -17.46088,7.50897 -29.72889,25.2789 -29.72889,45.98951 0,27.50407 21.63922,49.82656 48.31779,49.82656 26.67858,0 48.31779,-22.32249 48.31779,-49.82656 0,-3.69551 -0.38046,-7.27309 -1.14804,-10.74058"
             id="path29635"
             style="fill:#926a3a" /><path
             d="m 307.25723,118.97202 c -2.50299,-3.56971 -3.99811,-8.12227 -3.99811,-13.06011 0,-11.54259 8.06965,-20.85214 18.0082,-20.85214 l 2.3962,0 0,33.91225 -16.40629,0 z"
             id="path29637"
             style="fill:#f6bdb4" /><path
             d="M 461.27477,57.79944 C 453.6857,54.19828 445.64942,52.9245 437.8601,53.60071 l 0,-0.10222 c -0.82098,0.10222 -1.60859,0.20443 -2.42957,0.3381 -0.04,0.0157 -0.0868,0.0157 -0.14017,0.0157 -30.45642,4.54469 -54.81222,22.73135 -62.46804,46.23325 l 12.46824,0 c 9.6382,-11.95931 23.94864,-21.12734 41.16257,-25.77425 3.33065,-1.13224 7.06177,-1.75341 10.96644,-1.75341 8.6103,0 16.27947,3.02718 21.25876,7.74486 9.9786,9.1523 13.76981,23.85573 8.41006,36.57774 -0.81431,1.93425 -1.82885,3.70338 -2.96354,5.37816 0,0 -0.54065,0.71551 -0.83433,1.09293 -0.42718,0.55826 -0.88773,1.17156 -1.35496,1.6905 -4.74567,5.41747 -10.68611,9.44322 -17.26064,11.88855 l 0,22.3618 c 17.08043,-1.94211 32.95942,-13.42966 40.65529,-31.60059 11.35358,-26.9065 0.58069,-58.19257 -24.05544,-69.89242"
             id="path29639"
             style="fill:#926a3a" /><path
             d="m 385.33061,100.10916 c 2.48297,-3.56184 3.98477,-8.11441 3.98477,-13.05224 0,-11.52687 -8.05631,-20.85215 -17.99486,-20.85215 l -2.3962,0 0,33.91226 16.40629,0 z"
             id="path29641"
             style="fill:#f39c8f" /></g><g
           id="g11432"><g
             id="g11397"
             transform="matrix(1.0650855,-0.12567186,0,1,-425.69873,298.45257)"><rect
               style="opacity:1;fill:#88b1bc;fill-opacity:1;fill-rule:evenodd;stroke:none;stroke-width:12;stroke-linecap:round;stroke-linejoin:round;stroke-miterlimit:4;stroke-dasharray:none;stroke-opacity:1"
               id="rect11399"
               width="82.815529"
               height="99.082863"
               x="-443.31522"
               y="-125.39095"
               transform="scale(-1,1)"
               ry="25.29775" /></g><path
             style="clip-rule:evenodd;fill:#74b028;fill-rule:evenodd"
             id="path30103"
             d="m 87.180369,79.30028 c 0,0 -47.28989,-14.53045 -47.40336,-14.56191 C 33.436089,62.78054 27.462279,60.23299 20.674159,60.6104 2.7727537,61.56967 0.1229177,82.48471 8.7398897,95.81216 c 6.4877593,10.04865 18.7290693,19.39752 29.4085093,22.44829 10.29898,2.93282 22.96079,3.06649 33.49339,1.87134 0,0.008 22.12646,-14.93931 15.53858,-40.83151" /><path
             style="clip-rule:evenodd;fill:#790d23;fill-rule:evenodd"
             id="path30105"
             d="m 109.86751,115.02884 c 0,0 -2.06915,24.43758 11.93427,35.12312 l -18.5355,0 c 0,0 -3.964741,20.14449 14.30377,26.04946 l 0,23.98153 15.37172,48.67073 c 0,0 30.09599,-15.15948 35.04858,-30.57056 0,0 5.77358,-11.73916 -15.67875,-11.30671 0,0 -5.76689,-1.3524 7.00838,-9.93071 0,0 25.2769,-15.97721 -8.23651,-33.53484 0,0 -5.76023,-2.28021 4.12493,-8.16159 0,0 9.47133,-5.00074 7.82936,-19.47615 0,0 -16.06588,-1.80844 -19.36983,-20.85214 -3.30395,-19.02012 -31.74463,0 -31.74463,0 l -2.05579,0 z" /><path
             style="clip-rule:evenodd;fill:#ffd391;fill-rule:evenodd"
             id="path30107"
             d="m 121.56817,141.02325 c -1.48178,0 -2.86343,0.45604 -3.98477,1.29736 l 0,-32.22175 -54.284921,-4.56042 0,59.32482 c 0,0 -1.08797,13.98792 14.64418,15.84354 l 19.0361,0 0,20.09732 20.604641,0 0,-46.30403 c 1.12134,0.81773 2.50299,1.29736 3.98477,1.29736 3.94471,0 7.11517,-3.29451 7.11517,-7.38317 0,-4.08865 -3.17046,-7.39103 -7.11517,-7.39103" /><path
             style="clip-rule:evenodd;fill:#5b5b5b;fill-rule:evenodd;fill-opacity:1"
             id="path30109"
             d="m 94.195429,119.11749 c -5.75355,0 -10.57265,4.45821 -11.70734,10.42608 l -3.7912,0 c -1.13469,-5.96787 -5.96046,-10.42608 -11.70733,-10.42608 -6.60123,0 -11.9543,5.88924 -11.9543,13.13874 0,7.25737 5.35307,13.1466 11.9543,13.1466 6.0539,0 11.02652,-4.92997 11.8208,-11.32243 l 3.56426,0 c 0.80096,6.39246 5.7936,11.32243 11.82081,11.32243 6.607901,0 11.954301,-5.88923 11.954301,-13.1466 0,-7.2495 -5.3464,-13.13874 -11.954301,-13.13874" /><path
             style="clip-rule:evenodd;fill:#f7a541;fill-rule:evenodd"
             id="path30113"
             d="M 141.59879,90.71706 64.066059,73.19875 c 0,0 0.72086,-1.69051 0.38046,-0.85705 0.8677,-2.14654 2.37617,-5.32311 6.46773,-10.49684 l 67.954611,11.35389 c 1.40835,4.1201 2.35615,8.82206 2.65651,14.11372 0.0534,1.11652 0.0734,2.23304 0.0734,3.40459" /><path
             style="clip-rule:evenodd;fill:#74b028;fill-rule:evenodd"
             id="path30115"
             d="m 138.86886,73.20661 c -0.0134,0 -67.894541,-11.32243 -67.954611,-11.34602 0.68749,0.10222 5.70683,-6.08581 6.62793,-6.86422 2.99024,-2.56328 6.27417,-4.67051 9.79171,-6.29024 10.05202,-4.65478 21.892851,-6.40819 31.664541,-0.0786 3.75782,2.44533 7.48228,5.57472 10.63271,8.86924 2.08249,2.19372 3.75116,4.67836 5.43317,7.24163 2.11586,3.16871 3.80455,7.23378 3.80455,8.46824" /><path
             style="clip-rule:evenodd;fill:#790d23;fill-rule:evenodd"
             id="path30117"
             d="m 117.57673,176.20142 0,23.86359 12.7686,0 -1.64864,-92.75744 c -8.27656,2.03646 -16.77339,7.72913 -16.77339,7.72913 l -2.04912,0 c 0,0 -2.07582,24.44544 11.93427,35.09954 l -18.54217,0 c 0,0 -3.964741,20.16808 14.31045,26.06518" /><path
             style="clip-rule:evenodd;fill:#790d23;fill-rule:evenodd"
             id="path30119"
             d="m 63.285129,105.52271 0,-10.86638 27.13912,0 5.61338,11.93572 c 0.007,0 -21.21871,10.717 -32.7525,-1.06934" /><path
             style="clip-rule:evenodd;fill:#74b028;fill-rule:evenodd"
             id="path30121"
             d="m 63.285129,71.98001 c 0,0 15.65872,47.13748 66.359361,49.86588 0,0 37.93204,6.33741 61.81393,-27.19743 L 63.285129,71.98001 Z" /><path
             style="clip-rule:evenodd;fill:#ffffff;fill-rule:evenodd"
             id="path30123"
             d="m 72.763129,157.62162 22.65376,-4.43462 c 0,0 3.69108,13.94861 -7.02173,16.20523 0,-0.008 -11.93427,4.5447 -15.63203,-11.77061" /><polygon
             style="clip-rule:evenodd;fill:#ffde15;fill-rule:evenodd"
             transform="matrix(6.6746495,0,0,7.8627993,-1574.5537,-2080.8152)"
             id="polygon30125"
             points="253.516,297.129 253.576,290.101 250.428,290.101 250.428,297.129 249.447,297.129 249.447,299.548 254.522,299.548 254.522,297.129 " /><path
             style="clip-rule:evenodd;fill:#e30613;fill-rule:evenodd"
             id="path30127"
             d="m 84.290249,200.17509 c -8.20315,0 -14.83775,7.30454 -14.83775,16.29172 0,7.61119 4.74568,13.9722 11.13332,15.78064 l 0,23.64344 18.5622,0 0,-55.72366 -14.85777,0 z" /><rect
             style="opacity:1;fill:#afd9e4;fill-opacity:1;fill-rule:evenodd;stroke:none;stroke-width:12;stroke-linecap:round;stroke-linejoin:round;stroke-miterlimit:4;stroke-dasharray:none;stroke-opacity:1"
             id="rect11321"
             width="82.815529"
             height="99.082863"
             x="-41.079773"
             y="127.26949"
             transform="scale(-1,1)"
             ry="25.29775" /><g
             transform="matrix(-0.76746146,0,0,1.302997,-0.67376119,3.3688059)"
             style="font-style:normal;font-weight:normal;font-size:24.57181168px;line-height:87.00000048%;font-family:sans-serif;letter-spacing:0px;word-spacing:0px;fill:#ffffff;fill-opacity:1;stroke:none;stroke-width:1px;stroke-linecap:butt;stroke-linejoin:miter;stroke-opacity:1"
             id="text11323"><path
               style="font-weight:bold;line-height:87.00000048%;text-align:center;text-anchor:middle;fill:#ffffff;fill-opacity:1"
               d="m -29.167308,121.90547 c -5.14356,2.0634 -12.85005,2.48009 -15.811911,-3.20828 -2.840425,-5.21139 0.01933,-13.13679 6.376662,-13.76374 2.823446,-0.19572 9.275364,-0.86939 9.363261,2.8954 1.043895,5.2559 -3.605742,-0.4692 -6.346918,0.21898 -5.648203,-0.53315 -7.816368,8.15063 -3.270197,10.9377 2.311456,1.6426 6.13747,1.76398 5.0099,-1.83374 0.186711,-1.77594 -3.469506,0.29104 -3.563392,-1.20431 -0.01974,-1.5693 -0.503535,-3.60267 1.788179,-2.86052 2.151472,0 4.302944,0 6.454416,0 0,2.9395 0,5.87901 0,8.81851 z"
               id="path11330"
               inkscape:connector-curvature="0" /><path
               style="font-weight:bold;line-height:87.00000048%;text-align:center;text-anchor:middle;fill:#ffffff;fill-opacity:1"
               d="m -9.3586839,116.4584 c 0.4139735,4.23996 -3.8689461,7.29182 -7.8227511,6.85393 -4.493075,0.58265 -8.785026,-3.01927 -8.090031,-7.68289 0.03671,-3.52295 0.01341,-7.04553 0.01549,-10.5691 1.543737,0 3.087473,0 4.63121,0 0.455327,4.59184 -0.975404,9.71012 0.852885,13.96707 4.458802,3.29033 7.000239,-2.66374 5.789103,-6.43697 0.758096,-2.50673 -1.994191,-8.53554 2.291968,-7.5301 1.9962468,-0.45251 2.8071724,0.2803 2.3321231,2.29909 7e-7,3.03299 -1.3e-6,6.06598 1e-6,9.09897 z"
               id="path11332"
               inkscape:connector-curvature="0" /><path
               style="font-weight:bold;line-height:87.00000048%;text-align:center;text-anchor:middle;fill:#ffffff;fill-opacity:1"
               d="m 4.5709416,122.92529 c -3.4874056,0 -6.9748111,0 -10.4622167,0 -0.3215299,-2.43853 -0.039795,-3.9558 2.927501,-3.33763 0,-3.78662 0,-7.57324 0,-11.35986 -4.2137919,1.48996 -3.7243752,-4.68368 0.052666,-3.16746 2.49401673,0 4.9880335,0 7.4820502,0 0.3215299,2.43853 0.039795,3.9558 -2.927501,3.33763 0,3.78662 0,7.57324 0,11.35986 3.644388,-0.5184 2.8793225,0.46314 2.927501,3.16746 z"
               id="path11334"
               inkscape:connector-curvature="0" /><path
               style="font-weight:bold;line-height:87.00000048%;text-align:center;text-anchor:middle;fill:#ffffff;fill-opacity:1"
               d="m 25.23142,114.01081 c 0.295157,5.1893 -4.750044,9.38608 -9.774597,8.88304 -2.119358,-0.67908 -7.4395039,1.68356 -7.1065253,-1.50128 0,-5.44408 0,-10.88815 0,-16.33223 5.1929763,0.22884 12.0509123,-1.2456 15.4379023,3.83915 0.990336,1.50175 1.500093,3.31367 1.44322,5.11132 z m -4.763188,-0.036 c 0.492307,-3.90854 -3.910246,-6.61541 -7.352367,-5.38792 -0.378406,2.0901 -0.04659,4.4818 -0.158353,6.70495 0.398042,1.54626 -1.125264,4.98895 1.533466,4.31469 3.344785,0.22664 6.328851,-2.07135 5.977254,-5.63172 z"
               id="path11336"
               inkscape:connector-curvature="0" /><path
               style="font-weight:bold;line-height:87.00000048%;text-align:center;text-anchor:middle;fill:#ffffff;fill-opacity:1"
               d="m 41.668622,122.92529 c -4.307266,0 -8.614532,0 -12.921798,0 0,-5.95498 0,-11.90997 0,-17.86495 4.307266,0 8.614532,0 12.921798,0 -0.310221,1.26734 0.910936,4.06606 -1.277271,3.45541 -2.353769,0 -4.707539,0 -7.061308,0 0.163533,1.3752 -0.755915,3.83338 1.532725,3.08347 2.068652,0 4.137304,0 6.205956,0 -0.310221,1.26734 0.910936,4.06606 -1.277271,3.45541 -2.153803,0 -4.307607,0 -6.46141,0 0.184873,1.37203 -0.361044,3.47485 0.255454,4.41525 2.694375,0 5.38875,0 8.083125,0 0,1.1518 0,2.30361 0,3.45541 z"
               id="path11338"
               inkscape:connector-curvature="0" /><path
               style="font-weight:bold;line-height:87.00000048%;text-align:center;text-anchor:middle;fill:#ffffff;fill-opacity:1"
               d="m -24.164161,138.8317 c 0.09301,4.34183 -4.971714,5.96312 -8.562829,5.47044 -2.033482,-0.71516 -7.123023,1.61798 -6.722566,-1.53234 0,-5.44408 0,-10.88816 0,-16.33224 4.142535,0.30644 8.649666,-0.76668 12.526168,0.95851 3.546038,1.97161 -0.184529,6.85874 -0.30745,7.2536 1.717064,0.63051 3.261507,2.23275 3.066677,4.18203 z m -5.902994,-7.34275 c -1.129048,-3.65329 -6.918984,-1.83888 -4.629011,2.00365 1.602771,-0.0999 4.716615,0.52495 4.629011,-2.00365 z m 1.127808,7.27076 c -0.540627,-3.20179 -7.536369,-3.51578 -5.92699,0.62637 -1.357331,3.19426 6.50982,1.84046 5.92699,-0.62637 z"
               id="path11340"
               inkscape:connector-curvature="0" /><path
               style="font-weight:bold;line-height:87.00000048%;text-align:center;text-anchor:middle;fill:#ffffff;fill-opacity:1"
               d="m -3.3597066,135.37629 c 0.4973026,5.22086 -4.2841882,9.91828 -9.5038114,9.33181 -5.591518,0.28156 -9.857089,-5.17086 -8.878906,-10.55088 0.115314,-6.43769 7.613137,-9.82377 13.0825198,-7.40431 3.6170625,1.24638 5.4074875,4.99136 5.3001976,8.62338 z m -6.106959,4.52323 c 2.1414336,-3.05674 1.9882674,-8.79325 -1.9089334,-10.316 -4.290631,-1.18006 -6.373575,3.86186 -5.526774,7.34044 0.143707,3.73713 4.83829,6.038 7.4357074,2.97556 z"
               id="path11342"
               inkscape:connector-curvature="0" /><path
               style="font-weight:bold;line-height:87.00000048%;text-align:center;text-anchor:middle;fill:#ffffff;fill-opacity:1"
               d="m 17.564726,135.37629 c 0.497302,5.22086 -4.284188,9.91828 -9.5038111,9.33181 -5.5915176,0.28156 -9.8570896,-5.17086 -8.87890644,-10.55088 0.11531482,-6.43769 7.61313654,-9.82377 13.08251954,-7.40431 3.617062,1.24638 5.407488,4.99136 5.300198,8.62338 z m -6.106959,4.52323 c 2.141435,-3.05674 1.988264,-8.79325 -1.9089373,-10.316 -4.2906303,-1.18006 -6.3735751,3.86186 -5.5267736,7.34044 0.1437081,3.73713 4.8382912,6.03799 7.4357109,2.97556 z"
               id="path11344"
               inkscape:connector-curvature="0" /><path
               style="font-weight:bold;line-height:87.00000048%;text-align:center;text-anchor:middle;fill:#ffffff;fill-opacity:1"
               d="m 37.793276,144.30277 c -1.883679,0 -3.767358,0 -5.651037,0 -1.779697,-2.38359 -3.559393,-4.76719 -5.33909,-7.15078 -1.876854,1.88033 -0.792342,4.75743 -1.079816,7.15078 -1.535738,0 -3.071477,0 -4.607215,0 0,-5.95499 0,-11.90997 0,-17.86496 1.535738,0 3.071477,0 4.607215,0 0,2.69554 0,5.39109 0,8.08663 2.127637,-2.69554 4.255275,-5.39109 6.382912,-8.08663 1.779697,0 3.559393,0 5.33909,0 -2.327603,2.75553 -4.655207,5.51107 -6.98281,8.2666 2.443584,3.19945 4.887167,6.39891 7.330751,9.59836 z"
               id="path11346"
               inkscape:connector-curvature="0" /></g><path
             style="clip-rule:evenodd;fill:#e30613;fill-rule:evenodd"
             id="path30129"
             d="m 68.970661,211.06604 16.936403,19.73567 c 0,0 -27.83492,54.50249 -56.619896,57.39916 0,0 -29.72583706,4.5752 -38.8039327,-36.88834 L 2.4379,247.05195 c 1.1330681,4.70937 3.1333582,8.91688 6.5837683,12.36848 7.0212247,7.08857 15.1188237,10.73818 23.7795627,6.24143 0.0062,-0.003 36.30153,-39.3224 36.16943,-54.59582"
             inkscape:connector-curvature="0"
             sodipodi:nodetypes="cccccccc" /><path
             style="clip-rule:evenodd;fill:#ffd391;fill-rule:evenodd"
             id="path30131"
             d="m 2.0146401,229.38084 c -1.07239801,-0.28778 -0.076764,15.39246 0.1943709,16.63621 0.047783,0.34815 0.1405721,0.68145 0.2046469,1.00324 l 0.014656,0.0278 -11.9509967,4.26754 c -0.06711,-0.28461 -0.129743,-0.58938 -0.193817,-0.91116 0,0 -1.7292252,-16.48452 -0.6747652,-24.2144 -0.0099,-0.003 12.3594626,3.18857 12.4058918,3.19075"
             inkscape:connector-curvature="0" /><path
             style="clip-rule:evenodd;fill:#ffd391;fill-rule:evenodd"
             id="path30133"
             d="m -2.0980239,231.21215 0.3365215,-0.1775 11.3519733,-6.14728 -12.7582135,-23.64609 -11.7002944,6.33099 c -3.400778,1.86476 -3.278874,8.66308 0.25546,15.16391 3.520916,6.56126 9.1086833,10.31675 12.5145531,8.47597"
             inkscape:connector-curvature="0" /><path
             style="clip-rule:evenodd;fill:#926a3a;fill-rule:evenodd"
             id="path30135"
             d="m 92.413299,540.39842 c 0,0 -26.92554,10.86639 -28.57418,43.48128 l 84.093911,0 c 0,0 -0.56067,-33.51125 -28.03353,-38.51199 l -27.486201,-4.96929 z" /><path
             style="clip-rule:evenodd;fill:#12214f;fill-rule:evenodd"
             id="path30137"
             d="m 123.05661,423.53363 32.97945,121.82621 -101.007471,0 35.38899,-121.38589 C 44.689549,368.1009 66.081809,313.71391 80.705959,288.74953 l 51.808631,0 c 37.54491,73.91031 -9.45798,134.7841 -9.45798,134.7841"
             inkscape:connector-curvature="0"
             sodipodi:nodetypes="ccccccc" /><path
             style="clip-rule:evenodd;fill:#790d23;fill-rule:evenodd"
             id="path30139"
             d="m 132.41987,288.90204 -51.808629,0 c 5.29299,-9.05009 9.813008,-14.43922 9.813008,-14.43922 l 33.867171,0 c 3.11707,4.79631 5.75895,9.70581 8.12845,14.43922"
             inkscape:connector-curvature="0"
             sodipodi:nodetypes="ccccc" /><path
             style="clip-rule:evenodd;fill:#b4b4b4;fill-rule:evenodd;fill-opacity:1"
             id="path30141"
             d="m 94.769449,281.72018 c 0,-6.62834 4.89252,-12.01435 10.939751,-12.01435 6.04723,0 10.91973,5.38601 10.91973,12.01435 0,6.62834 -4.8725,12.03795 -10.91973,12.03795 -6.047231,0 -10.939751,-5.40961 -10.939751,-12.03795" /><path
             style="clip-rule:evenodd;fill:#e30613;fill-rule:evenodd"
             id="path30149"
             d="m 133.76943,200.17509 -16.20605,0 0,55.72366 16.20605,0 0,-32.59917 c 9.56477,7.42249 34.04071,32.89796 47.13637,105.66816 l 16.45301,0 c 0,0 -10.15214,-89.12483 -63.58938,-128.79265" /><polyline
             style="clip-rule:evenodd;fill:#ffd391;fill-rule:evenodd"
             transform="matrix(6.6746495,0,0,7.8627993,-1574.5537,-2080.8152)"
             id="polyline30151"
             points="268.356,306.021 265.395,306.021 262.904,306.021   263.004,306.482 263.333,308.633 266.216,309.63 266.791,308.557 265.468,308.058 268.356,308.058 " /></g></g></g></g></svg>